<svg width="46" height="38" viewBox="0 0 46 38" fill="none" xmlns="http://www.w3.org/2000/svg">
<path d="M44.7494 1.10598C42.8471 2.45251 40.7409 3.48239 38.5119 4.15595C37.3156 2.77551 35.7256 1.79709 33.957 1.35302C32.1885 0.908952 30.3267 1.02065 28.6235 1.67302C26.9203 2.32539 25.4578 3.48695 24.4339 5.00061C23.4099 6.51426 22.8739 8.30697 22.8984 10.1363V12.1297C19.4074 12.2206 15.9483 11.4436 12.8291 9.86805C9.70979 8.2925 7.02723 5.96726 5.02028 3.09943C5.02028 3.09943 -2.92555 21.0404 14.9526 29.0142C10.8615 31.801 5.98799 33.1983 1.04736 33.0011C18.9255 42.9683 40.7765 33.0011 40.7765 10.0765C40.7747 9.52121 40.7215 8.96731 40.6176 8.42192C42.645 6.4155 44.0756 3.88228 44.7494 1.10598V1.10598Z" stroke="black" stroke-width="2" stroke-linecap="round" stroke-linejoin="round"/>
</svg>
