<svg width="32" height="32" viewBox="0 0 32 32" fill="none" xmlns="http://www.w3.org/2000/svg">
<path d="M11.5001 26.667V24.5003H9.83342V26.667C9.83342 27.2416 10.0617 27.7927 10.468 28.1991C10.8743 28.6054 11.4254 28.8337 12.0001 28.8337H24.0001C24.5747 28.8337 25.1258 28.6054 25.5321 28.1991C25.9385 27.7927 26.1667 27.2416 26.1667 26.667V5.33366C26.1667 4.75902 25.9385 4.20792 25.5321 3.80159C25.1258 3.39527 24.5747 3.16699 24.0001 3.16699H12.0001C11.4254 3.16699 10.8743 3.39527 10.468 3.80159C10.0617 4.20792 9.83342 4.75902 9.83342 5.33366V7.50033H11.5001V5.33366V4.83366H12.0001H24.0001H24.5001V5.33366V26.667V27.167H24.0001H12.0001H11.5001V26.667Z" fill="#576CA8" stroke="#576CA8"/>
<path d="M7.10667 16.583H19.25V15.4163H7.10667H5.30095L6.57531 14.137L9.48703 11.214L8.66667 10.3937L3.06066 15.9997L8.66667 21.6057L9.48703 20.7853L6.57531 17.8623L5.30095 16.583H7.10667Z" fill="#576CA8" stroke="#576CA8" stroke-width="1.5"/>
</svg>
