<svg width="27" height="25" viewBox="0 0 27 25" fill="none" xmlns="http://www.w3.org/2000/svg">
<path d="M23.2222 23.5H3.77778C2.24365 23.5 1 22.2688 1 20.75L1 4.25C1 2.73122 2.24365 1.5 3.77778 1.5L17.6667 1.5C19.2008 1.5 20.4444 2.73122 20.4444 4.25V5.625M23.2222 23.5C21.6881 23.5 20.4444 22.2688 20.4444 20.75L20.4444 5.625M23.2222 23.5C24.7563 23.5 26 22.2688 26 20.75V8.375C26 6.85622 24.7563 5.625 23.2222 5.625L20.4444 5.625M14.8889 1.5L9.33333 1.5M6.55556 18H14.8889M6.55556 7H14.8889V12.5H6.55556V7Z" stroke="#17191C" stroke-width="2" stroke-linecap="round" stroke-linejoin="round"/>
</svg>
