<svg width="62" height="42" viewBox="0 0 62 42" fill="none" xmlns="http://www.w3.org/2000/svg">
<path d="M41.0926 13.9258C45.1158 13.9258 48.9742 15.0251 51.819 16.9818C54.6638 18.9385 56.2619 21.5923 56.2619 24.3595V36.5323H46.1491V24.3595C46.1491 23.4371 45.6163 22.5525 44.6681 21.9003C43.7198 21.248 42.4337 20.8816 41.0926 20.8816C39.7516 20.8816 38.4655 21.248 37.5172 21.9003C36.5689 22.5525 36.0362 23.4371 36.0362 24.3595V36.5323H25.9233V24.3595C25.9233 21.5923 27.5215 18.9385 30.3663 16.9818C33.2111 15.0251 37.0695 13.9258 41.0926 13.9258V13.9258Z" stroke="black" stroke-width="2" stroke-linecap="round" stroke-linejoin="round"/>
<path d="M15.8104 15.6641H5.69751V36.5316H15.8104V15.6641Z" stroke="black" stroke-width="2" stroke-linecap="round" stroke-linejoin="round"/>
<path d="M10.7539 10.4471C13.5465 10.4471 15.8104 8.88994 15.8104 6.96913C15.8104 5.04833 13.5465 3.49121 10.7539 3.49121C7.96135 3.49121 5.69751 5.04833 5.69751 6.96913C5.69751 8.88994 7.96135 10.4471 10.7539 10.4471Z" stroke="black" stroke-width="2" stroke-linecap="round" stroke-linejoin="round"/>
</svg>
