<svg width="19" height="19" viewBox="0 0 19 19" fill="none" xmlns="http://www.w3.org/2000/svg">
<path d="M3.95833 17.4163C3.52292 17.4163 3.15004 17.2614 2.83971 16.9516C2.5299 16.6413 2.375 16.2684 2.375 15.833V4.74967C2.375 4.31426 2.5299 3.94165 2.83971 3.63184C3.15004 3.32151 3.52292 3.16634 3.95833 3.16634H4.75V1.58301H6.33333V3.16634H12.6667V1.58301H14.25V3.16634H15.0417C15.4771 3.16634 15.85 3.32151 16.1603 3.63184C16.4701 3.94165 16.625 4.31426 16.625 4.74967V9.49967H15.0417V7.91634H3.95833V15.833H9.5V17.4163H3.95833ZM17.5156 13.458L15.8333 11.7757L16.4073 11.2018C16.5524 11.0566 16.7372 10.984 16.9615 10.984C17.1858 10.984 17.3705 11.0566 17.5156 11.2018L18.0896 11.7757C18.2347 11.9209 18.3073 12.1056 18.3073 12.3299C18.3073 12.5542 18.2347 12.7389 18.0896 12.884L17.5156 13.458ZM11.0833 18.208V16.5257L15.2792 12.3299L16.9615 14.0122L12.7656 18.208H11.0833ZM3.95833 6.33301H15.0417V4.74967H3.95833V6.33301ZM3.95833 6.33301V4.74967V6.33301Z" fill="#545454"/>
</svg>
